<svg height="2766" width="720" xmlns="http://www.w3.org/2000/svg">
<rect height="2766" fill="#555" width="720"></rect>
<text fill="#7f7" font-family="Courier New" font-size="12" xml:space="preserve">
<tspan x="10" y="26">253 megabytes installed</tspan>
<tspan x="10" y="42"></tspan>
<tspan x="10" y="58">node_modules</tspan>
<tspan x="10" y="74">└─┬ gl@4.0.3 </tspan>
<tspan x="10" y="90">  ├── bindings@1.2.1 </tspan>
<tspan x="10" y="106">  ├── bit-twiddle@1.0.2 </tspan>
<tspan x="10" y="122">  ├─┬ glsl-tokenizer@2.1.2 </tspan>
<tspan x="10" y="138">  │ └─┬ through2@0.6.5 </tspan>
<tspan x="10" y="154">  │   └─┬ readable-stream@1.0.34 </tspan>
<tspan x="10" y="170">  │     ├── core-util-is@1.0.2 </tspan>
<tspan x="10" y="186">  │     ├── isarray@0.0.1 </tspan>
<tspan x="10" y="202">  │     └── string_decoder@0.10.31 </tspan>
<tspan x="10" y="218">  ├── nan@2.6.2 </tspan>
<tspan x="10" y="234">  ├─┬ node-gyp@3.6.0 </tspan>
<tspan x="10" y="250">  │ ├─┬ fstream@1.0.11 </tspan>
<tspan x="10" y="266">  │ │ └── inherits@2.0.3 </tspan>
<tspan x="10" y="282">  │ ├─┬ glob@7.1.1 </tspan>
<tspan x="10" y="298">  │ │ ├── fs.realpath@1.0.0 </tspan>
<tspan x="10" y="314">  │ │ ├─┬ inflight@1.0.6 </tspan>
<tspan x="10" y="330">  │ │ │ └── wrappy@1.0.2 </tspan>
<tspan x="10" y="346">  │ │ ├── once@1.4.0 </tspan>
<tspan x="10" y="362">  │ │ └── path-is-absolute@1.0.1 </tspan>
<tspan x="10" y="378">  │ ├── graceful-fs@4.1.11 </tspan>
<tspan x="10" y="394">  │ ├─┬ minimatch@3.0.3 </tspan>
<tspan x="10" y="410">  │ │ └─┬ brace-expansion@1.1.7 </tspan>
<tspan x="10" y="426">  │ │   ├── balanced-match@0.4.2 </tspan>
<tspan x="10" y="442">  │ │   └── concat-map@0.0.1 </tspan>
<tspan x="10" y="458">  │ ├─┬ mkdirp@0.5.1 </tspan>
<tspan x="10" y="474">  │ │ └── minimist@0.0.8 </tspan>
<tspan x="10" y="490">  │ ├─┬ nopt@3.0.6 </tspan>
<tspan x="10" y="506">  │ │ └── abbrev@1.1.0 </tspan>
<tspan x="10" y="522">  │ ├─┬ npmlog@4.0.2 </tspan>
<tspan x="10" y="538">  │ │ ├─┬ are-we-there-yet@1.1.2 </tspan>
<tspan x="10" y="554">  │ │ │ ├── delegates@1.0.0 </tspan>
<tspan x="10" y="570">  │ │ │ └─┬ readable-stream@2.2.9 </tspan>
<tspan x="10" y="586">  │ │ │   ├── isarray@1.0.0 </tspan>
<tspan x="10" y="602">  │ │ │   └── string_decoder@1.0.0 </tspan>
<tspan x="10" y="618">  │ │ ├── console-control-strings@1.1.0 </tspan>
<tspan x="10" y="634">  │ │ ├─┬ gauge@2.7.3 </tspan>
<tspan x="10" y="650">  │ │ │ ├── aproba@1.1.1 </tspan>
<tspan x="10" y="666">  │ │ │ ├── has-unicode@2.0.1 </tspan>
<tspan x="10" y="682">  │ │ │ ├── object-assign@4.1.1 </tspan>
<tspan x="10" y="698">  │ │ │ ├── signal-exit@3.0.2 </tspan>
<tspan x="10" y="714">  │ │ │ ├─┬ string-width@1.0.2 </tspan>
<tspan x="10" y="730">  │ │ │ │ ├── code-point-at@1.1.0 </tspan>
<tspan x="10" y="746">  │ │ │ │ └─┬ is-fullwidth-code-point@1.0.0 </tspan>
<tspan x="10" y="762">  │ │ │ │   └── number-is-nan@1.0.1 </tspan>
<tspan x="10" y="778">  │ │ │ ├─┬ strip-ansi@3.0.1 </tspan>
<tspan x="10" y="794">  │ │ │ │ └── ansi-regex@2.1.1 </tspan>
<tspan x="10" y="810">  │ │ │ └── wide-align@1.1.0 </tspan>
<tspan x="10" y="826">  │ │ └── set-blocking@2.0.0 </tspan>
<tspan x="10" y="842">  │ ├─┬ osenv@0.1.4 </tspan>
<tspan x="10" y="858">  │ │ └── os-tmpdir@1.0.2 </tspan>
<tspan x="10" y="874">  │ ├─┬ request@2.81.0 </tspan>
<tspan x="10" y="890">  │ │ ├── aws-sign2@0.6.0 </tspan>
<tspan x="10" y="906">  │ │ ├── aws4@1.6.0 </tspan>
<tspan x="10" y="922">  │ │ ├── caseless@0.12.0 </tspan>
<tspan x="10" y="938">  │ │ ├─┬ combined-stream@1.0.5 </tspan>
<tspan x="10" y="954">  │ │ │ └── delayed-stream@1.0.0 </tspan>
<tspan x="10" y="970">  │ │ ├── extend@3.0.0 </tspan>
<tspan x="10" y="986">  │ │ ├── forever-agent@0.6.1 </tspan>
<tspan x="10" y="1002">  │ │ ├─┬ form-data@2.1.4 </tspan>
<tspan x="10" y="1018">  │ │ │ └── asynckit@0.4.0 </tspan>
<tspan x="10" y="1034">  │ │ ├─┬ har-validator@4.2.1 </tspan>
<tspan x="10" y="1050">  │ │ │ ├─┬ ajv@4.11.7 </tspan>
<tspan x="10" y="1066">  │ │ │ │ ├── co@4.6.0 </tspan>
<tspan x="10" y="1082">  │ │ │ │ └─┬ json-stable-stringify@1.0.1 </tspan>
<tspan x="10" y="1098">  │ │ │ │   └── jsonify@0.0.0 </tspan>
<tspan x="10" y="1114">  │ │ │ └── har-schema@1.0.5 </tspan>
<tspan x="10" y="1130">  │ │ ├─┬ hawk@3.1.3 </tspan>
<tspan x="10" y="1146">  │ │ │ ├── boom@2.10.1 </tspan>
<tspan x="10" y="1162">  │ │ │ ├── cryptiles@2.0.5 </tspan>
<tspan x="10" y="1178">  │ │ │ ├── hoek@2.16.3 </tspan>
<tspan x="10" y="1194">  │ │ │ └── sntp@1.0.9 </tspan>
<tspan x="10" y="1210">  │ │ ├─┬ http-signature@1.1.1 </tspan>
<tspan x="10" y="1226">  │ │ │ ├── assert-plus@0.2.0 </tspan>
<tspan x="10" y="1242">  │ │ │ ├─┬ jsprim@1.4.0 </tspan>
<tspan x="10" y="1258">  │ │ │ │ ├── assert-plus@1.0.0 </tspan>
<tspan x="10" y="1274">  │ │ │ │ ├── extsprintf@1.0.2 </tspan>
<tspan x="10" y="1290">  │ │ │ │ ├── json-schema@0.2.3 </tspan>
<tspan x="10" y="1306">  │ │ │ │ └── verror@1.3.6 </tspan>
<tspan x="10" y="1322">  │ │ │ └─┬ sshpk@1.13.0 </tspan>
<tspan x="10" y="1338">  │ │ │   ├── asn1@0.2.3 </tspan>
<tspan x="10" y="1354">  │ │ │   ├── assert-plus@1.0.0 </tspan>
<tspan x="10" y="1370">  │ │ │   ├── bcrypt-pbkdf@1.0.1 </tspan>
<tspan x="10" y="1386">  │ │ │   ├─┬ dashdash@1.14.1 </tspan>
<tspan x="10" y="1402">  │ │ │   │ └── assert-plus@1.0.0 </tspan>
<tspan x="10" y="1418">  │ │ │   ├── ecc-jsbn@0.1.1 </tspan>
<tspan x="10" y="1434">  │ │ │   ├─┬ getpass@0.1.6 </tspan>
<tspan x="10" y="1450">  │ │ │   │ └── assert-plus@1.0.0 </tspan>
<tspan x="10" y="1466">  │ │ │   ├── jodid25519@1.0.2 </tspan>
<tspan x="10" y="1482">  │ │ │   ├── jsbn@0.1.1 </tspan>
<tspan x="10" y="1498">  │ │ │   └── tweetnacl@0.14.5 </tspan>
<tspan x="10" y="1514">  │ │ ├── is-typedarray@1.0.0 </tspan>
<tspan x="10" y="1530">  │ │ ├── isstream@0.1.2 </tspan>
<tspan x="10" y="1546">  │ │ ├── json-stringify-safe@5.0.1 </tspan>
<tspan x="10" y="1562">  │ │ ├─┬ mime-types@2.1.15 </tspan>
<tspan x="10" y="1578">  │ │ │ └── mime-db@1.27.0 </tspan>
<tspan x="10" y="1594">  │ │ ├── oauth-sign@0.8.2 </tspan>
<tspan x="10" y="1610">  │ │ ├── performance-now@0.2.0 </tspan>
<tspan x="10" y="1626">  │ │ ├── qs@6.4.0 </tspan>
<tspan x="10" y="1642">  │ │ ├── safe-buffer@5.0.1 </tspan>
<tspan x="10" y="1658">  │ │ ├── stringstream@0.0.5 </tspan>
<tspan x="10" y="1674">  │ │ ├─┬ tough-cookie@2.3.2 </tspan>
<tspan x="10" y="1690">  │ │ │ └── punycode@1.4.1 </tspan>
<tspan x="10" y="1706">  │ │ ├── tunnel-agent@0.6.0 </tspan>
<tspan x="10" y="1722">  │ │ └── uuid@3.0.1 </tspan>
<tspan x="10" y="1738">  │ ├── rimraf@2.6.1 </tspan>
<tspan x="10" y="1754">  │ ├── semver@5.3.0 </tspan>
<tspan x="10" y="1770">  │ ├─┬ tar@2.2.1 </tspan>
<tspan x="10" y="1786">  │ │ └── block-stream@0.0.9 </tspan>
<tspan x="10" y="1802">  │ └─┬ which@1.2.14 </tspan>
<tspan x="10" y="1818">  │   └── isexe@2.0.0 </tspan>
<tspan x="10" y="1834">  └─┬ prebuild@5.1.2 </tspan>
<tspan x="10" y="1850">    ├─┬ async@2.3.0 </tspan>
<tspan x="10" y="1866">    │ └── lodash@4.17.4 </tspan>
<tspan x="10" y="1882">    ├─┬ execspawn@1.0.1 </tspan>
<tspan x="10" y="1898">    │ └── util-extend@1.0.3 </tspan>
<tspan x="10" y="1914">    ├── expand-template@1.0.3 </tspan>
<tspan x="10" y="1930">    ├─┬ ghreleases@1.0.5 </tspan>
<tspan x="10" y="1946">    │ ├── after@0.8.2 </tspan>
<tspan x="10" y="1962">    │ ├── ghrepos@2.0.0 </tspan>
<tspan x="10" y="1978">    │ ├─┬ ghutils@3.2.1 </tspan>
<tspan x="10" y="1994">    │ │ └─┬ jsonist@1.3.0 </tspan>
<tspan x="10" y="2010">    │ │   └─┬ hyperquest@1.2.0 </tspan>
<tspan x="10" y="2026">    │ │     └─┬ duplexer2@0.0.2 </tspan>
<tspan x="10" y="2042">    │ │       └── readable-stream@1.1.14 </tspan>
<tspan x="10" y="2058">    │ ├── simple-mime@0.1.0 </tspan>
<tspan x="10" y="2074">    │ └── url-template@2.0.8 </tspan>
<tspan x="10" y="2090">    ├── github-from-package@0.0.0 </tspan>
<tspan x="10" y="2106">    ├── minimist@1.2.0 </tspan>
<tspan x="10" y="2122">    ├── node-abi@1.3.3 </tspan>
<tspan x="10" y="2138">    ├─┬ node-ninja@1.0.2 </tspan>
<tspan x="10" y="2154">    │ ├─┬ npmlog@2.0.4 </tspan>
<tspan x="10" y="2170">    │ │ ├── ansi@0.3.1 </tspan>
<tspan x="10" y="2186">    │ │ └─┬ gauge@1.2.7 </tspan>
<tspan x="10" y="2202">    │ │   ├── lodash.pad@4.5.1 </tspan>
<tspan x="10" y="2218">    │ │   ├── lodash.padend@4.6.1 </tspan>
<tspan x="10" y="2234">    │ │   └── lodash.padstart@4.6.1 </tspan>
<tspan x="10" y="2250">    │ └─┬ path-array@1.0.1 </tspan>
<tspan x="10" y="2266">    │   └─┬ array-index@1.0.0 </tspan>
<tspan x="10" y="2282">    │     ├─┬ debug@2.6.3 </tspan>
<tspan x="10" y="2298">    │     │ └── ms@0.7.2 </tspan>
<tspan x="10" y="2314">    │     └─┬ es6-symbol@3.1.1 </tspan>
<tspan x="10" y="2330">    │       ├── d@1.0.0 </tspan>
<tspan x="10" y="2346">    │       └─┬ es5-ext@0.10.15 </tspan>
<tspan x="10" y="2362">    │         └── es6-iterator@2.0.1 </tspan>
<tspan x="10" y="2378">    ├── noop-logger@0.1.1 </tspan>
<tspan x="10" y="2394">    ├── os-homedir@1.0.2 </tspan>
<tspan x="10" y="2410">    ├─┬ pump@1.0.2 </tspan>
<tspan x="10" y="2426">    │ └── end-of-stream@1.4.0 </tspan>
<tspan x="10" y="2442">    ├─┬ rc@1.2.1 </tspan>
<tspan x="10" y="2458">    │ ├── deep-extend@0.4.1 </tspan>
<tspan x="10" y="2474">    │ ├── ini@1.3.4 </tspan>
<tspan x="10" y="2490">    │ ├── minimist@1.2.0 </tspan>
<tspan x="10" y="2506">    │ └── strip-json-comments@2.0.1 </tspan>
<tspan x="10" y="2522">    ├─┬ simple-get@1.4.3 </tspan>
<tspan x="10" y="2538">    │ └── unzip-response@1.0.2 </tspan>
<tspan x="10" y="2554">    ├─┬ tar-fs@1.15.2 </tspan>
<tspan x="10" y="2570">    │ └── chownr@1.0.1 </tspan>
<tspan x="10" y="2586">    ├─┬ tar-stream@1.5.2 </tspan>
<tspan x="10" y="2602">    │ ├─┬ bl@1.0.3 </tspan>
<tspan x="10" y="2618">    │ │ └─┬ readable-stream@2.0.6 </tspan>
<tspan x="10" y="2634">    │ │   └── isarray@1.0.0 </tspan>
<tspan x="10" y="2650">    │ └─┬ readable-stream@2.2.9 </tspan>
<tspan x="10" y="2666">    │   ├── buffer-shims@1.0.0 </tspan>
<tspan x="10" y="2682">    │   ├── isarray@1.0.0 </tspan>
<tspan x="10" y="2698">    │   ├── process-nextick-args@1.0.7 </tspan>
<tspan x="10" y="2714">    │   ├── string_decoder@1.0.0 </tspan>
<tspan x="10" y="2730">    │   └── util-deprecate@1.0.2 </tspan>
<tspan x="10" y="2746">    └── xtend@4.0.1</tspan>
</text>
</svg>
